<?xml version="1.0" encoding="utf-8"?>
<!-- Generator: Adobe Illustrator 28.0.0, SVG Export Plug-In . SVG Version: 6.00 Build 0)  -->
<svg width="35px" height="35px" version="1.1" id="Layer_1" xmlns="http://www.w3.org/2000/svg" xmlns:xlink="http://www.w3.org/1999/xlink" x="0px" y="0px"
	 viewBox="0 0 100 100" style="enable-background:new 0 0 100 100;" xml:space="preserve">
<style type="text/css">
	.st0{fill:#FFFFFF;}
</style>
<g>
	<g>
		<g>
			<path class="st0" d="M45,64.2c-1.1,9.1-3.3,15.3-5.8,15.3c-0.1,0-0.1,0-0.2,0c-0.3,0-0.6-0.2-1-0.4c0,0,0,0,0,0
				c-3.1-2.5-5.4-14.5-5.4-29c0-14.4,2.3-26.4,5.4-29c0.3-0.3,0.7-0.5,1-0.5c0,0,0,0,0,0h0.2c2.6,0,4.9,6.8,6,16.6
				c-5.6,2-9.5,7.3-9.5,13.5C35.6,56.9,39.5,62.1,45,64.2z"/>
			<path class="st0" d="M67.4,50c0,14.5-2.3,26.5-5.4,29h0v0c-0.3,0.2-0.6,0.4-0.9,0.4c-0.1,0-0.2,0-0.2,0c-2.5,0-4.7-6.2-5.8-15.3
				c5.5-2,9.4-7.3,9.4-13.5c0-6.2-4-11.6-9.5-13.5c1.1-9.8,3.4-16.6,6-16.6H61v0c0.4,0,0.7,0.2,1,0.5c0,0,0,0,0,0
				C65.1,23.6,67.4,35.6,67.4,50z"/>
		</g>
		<path class="st0" d="M30.2,50c0-14.4,2.3-26.4,5.4-29c-10.6,5.3-17.9,16.3-17.9,29c0,12.7,7.3,23.7,17.9,29
			C32.5,76.5,30.2,64.5,30.2,50z M64.4,21c3.1,2.6,5.4,14.5,5.4,29c0,14.5-2.3,26.5-5.4,29C75,73.7,82.3,62.7,82.3,50
			C82.3,37.3,75,26.4,64.4,21z"/>
		<path class="st0" d="M62.1,50.7c0,5-3,9.3-7.4,11.2c-1.5,0.6-3.1,1-4.8,1c-1.7,0-3.3-0.4-4.8-1c-4.3-1.9-7.4-6.2-7.4-11.2
			c0-5.1,3.1-9.4,7.5-11.2c1.4-0.6,3-0.9,4.7-0.9c1.7,0,3.2,0.3,4.7,0.9C59.1,41.3,62.1,45.6,62.1,50.7z"/>
	</g>
</g>
</svg>
